# xmcd
#
# Track frame offsets:
#	150
#	11865
#	31227
#	45380
#	60552
#	74127
#	87665
#	104602
#	115025
#	125212
#	136077
#	146055
#	156365
#	166487
#	178797
#	192484
#	202490
#	214384
#	224757
#	236200
#	249615
#	260377
#	269982
#	281745
#	290962
#
# Disc length: 4042 seconds
#
# Revision: 0
# Processed by: cddbd v1.5.2PL0 Copyright (c) Steve Scherf et al.
# Submitted via: audiograbber 1.83.01
#
DISCID=b90fc819
DTITLE=Various Artist - 101% Country - Let's Go To Nashville
DYEAR=1995
DGENRE=Country
TTITLE0=Roger Miller - Walking In The Sunshine
TTITLE1=Bobby Bare - Me And Bobby Mcgee
TTITLE2=Lacy J. Dalton - 16th Avenue 
TTITLE3=Lee Greenwood - Dixie Road  
TTITLE4=Ray Price - Heartaches By The Number 
TTITLE5=Bill Anderson - Before I Met You
TTITLE6=Ferlin Husky - Giddyup Go 
TTITLE7=Dave Dudley - Six Days On The Road 
TTITLE8=Jack Reno - Hitchin' A Ride
TTITLE9=Justin Tubb - Take A Letter Miss Gray 
TTITLE10=Skeeter Davis - I Can't Stay Mad At You  
TTITLE11=Warner Mack - The Bridge Washed Out 
TTITLE12=Glen Campbell - Gentle On My Mind (live)
TTITLE13=Moe Bandy - San Antonio Rose 
TTITLE14=Johnny Paycheck - She's Mine  
TTITLE15=Bob Luman - When You Say Love  
TTITLE16=George Hamilton - Why Don't They Understand  
TTITLE17=Johnny Russell - Jambalaya  
TTITLE18=Charlie Louvin - I Don't Love You Anymore 
TTITLE19=Claude Gray - Family Bible  
TTITLE20=Carl Belew - Hello Out There 
TTITLE21=Wynn Stewart - Love's Gonna Happen To Me 
TTITLE22=Tommy Collins - Watcha Gonna Do Now 
TTITLE23=Roy Drusky - Peel Me A Nanner 
TTITLE24=Sandford Clark - They Call Me Country
EXTD=YEAR: 1995
EXTT0=
EXTT1=
EXTT2=
EXTT3=
EXTT4=
EXTT5=
EXTT6=
EXTT7=
EXTT8=
EXTT9=
EXTT10=
EXTT11=
EXTT12=
EXTT13=
EXTT14=
EXTT15=
EXTT16=
EXTT17=
EXTT18=
EXTT19=
EXTT20=
EXTT21=
EXTT22=
EXTT23=
EXTT24=
PLAYORDER=
